<svg xmlns="http://www.w3.org/2000/svg" viewBox="0 0 410 404">
  <defs>
    <linearGradient id="a" x1="6.502" x2="235.41" y1="64.043" y2="344.86" gradientUnits="userSpaceOnUse">
      <stop stop-color="#41d1ff"/>
      <stop offset="1" stop-color="#bd34fe"/>
    </linearGradient>
    <linearGradient id="b" x1="194.65" x2="236.07" y1="8.818" y2="292.99" gradientUnits="userSpaceOnUse">
      <stop stop-color="#ffea83"/>
      <stop offset="0.083" stop-color="#ffdd35"/>
      <stop offset="1" stop-color="#ffa800"/>
    </linearGradient>
  </defs>
  <path fill="url(#a)" d="M399.641 59.525 215.82 388.57c-5.995 10.794-21.655 10.843-27.715.09L9.874 59.572c-6.631-11.45 3.106-25.41 16.569-23.227l176.18 29.467a16 16 0 0 0 5.312-0.001l175.221-29.355c13.437-2.25 23.209 11.658 16.64 23.112Z"/>
  <path fill="url(#b)" d="M292.476 1.074 156.305 25.027a8 8 0 0 0-6.54 6.69L124.73 219.575a8 8 0 0 0 9.178 8.824l77.974-12.218c5.12-.803 9.472 3.77 8.33 8.82l-23.188 104.078c-1.523 6.834 7.536 10.492 11.184 4.465l2.626-4.32 144.316-273.31c3.215-6.087-1.962-13.202-8.819-11.977l-81.338 14.977c-5.12.942-9.6-3.69-8.415-8.774l13.276-57.536c1.426-6.177-3.761-11.908-10.324-10.74Z"/>
</svg>
