<svg xmlns="http://www.w3.org/2000/svg" viewBox="0 0 256 257"><defs><linearGradient id="a" x1="-.828%" x2="57.636%" y1="7.652%" y2="78.411%"><stop stop-color="#41D1FF"/><stop offset="1" stop-color="#BD34FE"/></linearGradient><linearGradient id="b" x1="43.376%" x2="50.316%" y1="2.242%" y2="89.03%"><stop stop-color="#FFEA83"/><stop offset=".083" stop-color="#FFDD35"/><stop offset="1" stop-color="#FFA800"/></linearGradient></defs><path fill="url(#a)" d="M255.153 37.938 134.897 252.976c-2.483 4.44-8.862 4.466-11.382.047L.875 37.958c-2.746-4.814 1.371-10.646 6.827-9.67l120.385 21.517a6.537 6.537 0 0 0 2.322 0l117.867-21.483c5.438-.992 9.574 4.796 6.853 9.62Z"/><path fill="url(#b)" d="m185.432.063-94.55 17.382a3.268 3.268 0 0 0-2.634 3.014l-5.474 92.456a3.268 3.268 0 0 0 3.997 3.378l26.311-5.887c2.318-.519 4.413 1.507 3.936 3.838l-7.829 38.906c-.495 2.463 1.782 4.57 4.151 3.78l16.228-5.385c2.372-.787 4.652 1.32 4.15 3.786l-12.42 61.046c-.732 3.594 3.979 5.473 5.943 2.437l1.313-2.028 76.604-170.053c1.215-2.7-.88-5.727-3.863-5.173l-27.06 4.922c-2.396.436-4.435-1.77-3.759-4.114l17.804-61.308c.677-2.337-1.37-4.54-3.77-4.098Z"/></svg>
